<!-- Generator: Adobe Illustrator 24.0.0, SVG Export Plug-In  -->
<svg version="1.1" xmlns="http://www.w3.org/2000/svg" xmlns:xlink="http://www.w3.org/1999/xlink" x="0px" y="0px"
	 width="163.42px" height="100px" viewBox="0 0 163.42 100" style="enable-background:new 0 0 163.42 100;" xml:space="preserve">
<style type="text/css">
	.st0{fill:#0A1C21;}
	.st1{fill:#EF5241;}
	.st2{fill:#FFFFFF;}
</style>
<defs>
</defs>
<g>
	<path class="st0" d="M11,20.5l-0.08,7.84l-8.48,0.67L2.65,0l11.31,0.04c6.91,0,10.67,3.23,11.27,9.68c0.09,4.64-1.45,7.77-4.63,9.4
		l4.93,9.36l-9.82-0.1l-3.43-7.9L11,20.5z M11.1,11.89l2.44-0.04c2.22-0.11,3.31-0.75,3.27-1.93c-0.16-0.74-1.14-1.17-2.96-1.3
		l-2.72,0.08L11.1,11.89z"/>
	<path class="st0" d="M26.14,14.57c-0.13-9.62,4.03-14.46,12.5-14.53c6.91,0,10.67,4.54,11.27,13.62
		c0.14,9.82-3.65,14.69-11.37,14.63C30.68,28.48,26.55,23.91,26.14,14.57z M34.68,14.19c0.12,3.64,1.3,5.42,3.55,5.34
		c2.22,0.03,3.31-1.87,3.27-5.68c-0.17-3.53-1.25-5.3-3.23-5.3C35.83,8.58,34.64,10.46,34.68,14.19z"/>
	<path class="st0" d="M73.62,19.97c-1.35,5.6-4.95,8.37-10.78,8.32c-7.86,0.2-11.99-4.38-12.4-13.72
		c-0.13-9.62,4.03-14.46,12.5-14.53c5.55,0,9.06,2.93,10.55,8.79l-8.08,2.35c-0.5-1.75-1.45-2.62-2.84-2.62
		c-2.43,0.03-3.63,1.91-3.59,5.64c0.12,3.64,1.3,5.42,3.55,5.34c1.73,0.03,2.78-1.13,3.13-3.47L73.62,19.97z"/>
	<path class="st0" d="M83.04,6.47l4.28-6.13l10.37-0.2L88.11,13.8l9.52,14.8l-10.37-0.2l-4.12-7.35l0.06,7.96l-8.48-0.67L74.41,0.41
		L83.01,0L83.04,6.47z"/>
	<path class="st0" d="M11,54.37l-0.08,7.84l-8.48,0.67l0.2-29.01l11.31,0.04c6.91,0,10.67,3.23,11.27,9.68
		c0.14,7.19-3.65,10.77-11.37,10.74L11,54.37z M11.14,42.56l-0.04,3.19l2.44-0.04c2.22-0.11,3.31-0.75,3.27-1.93
		c-0.16-0.74-1.14-1.17-2.96-1.3L11.14,42.56z"/>
	<path class="st0" d="M32.49,60.06l-0.51,2.39l-9.56-0.59l7.82-28.15h11.04l6.9,27.93l-8.93,0.81l-0.67-2.98L32.49,60.06z
		 M36.94,52.08l-1.4-6.29l-1.4,6.54L36.94,52.08z"/>
	<path class="st0" d="M57.52,54.37l-0.08,7.84l-8.48,0.67l0.2-29.01l11.31,0.04c6.91,0,10.67,3.23,11.27,9.68
		c0.14,7.19-3.65,10.77-11.37,10.74L57.52,54.37z M57.66,42.56l-0.04,3.19l2.44-0.04c2.22-0.11,3.31-0.75,3.27-1.93
		c-0.16-0.74-1.14-1.17-2.96-1.3L57.66,42.56z"/>
	<path class="st0" d="M81.63,54.03l12.79-0.12l-0.47,8.48l-20.89,0.49l0.2-29.01l20.95,0.14l-0.28,8.48l-12.18,0.2l-0.02,1.52
		l9.54-0.12l-0.67,8.48l-8.97,0.18V54.03z"/>
	<path class="st0" d="M104.67,54.37l-0.08,7.84l-8.48,0.67l0.2-29.01l11.31,0.04c6.91,0,10.67,3.23,11.28,9.68
		c0.09,4.64-1.45,7.77-4.63,9.4l4.93,9.36l-9.82-0.1l-3.43-7.9L104.67,54.37z M104.77,45.75l2.44-0.04
		c2.22-0.11,3.31-0.75,3.27-1.93c-0.16-0.74-1.14-1.17-2.96-1.3l-2.72,0.08L104.77,45.75z"/>
	<path class="st0" d="M20.22,73.59l-4.02,7.25c-2.39-2-4.42-2.93-6.07-2.8c-1.05,0.41-1.41,1.08-1.06,2.03
		c0.54,0.62,2.44,1.52,5.71,2.71c3.26,1.19,4.94,3.75,5.02,7.68c-0.09,6.31-3.71,9.49-10.84,9.54C6.61,99.93,3.63,98.69,0,96.25
		L1.95,89c3.02,1.81,5.32,2.73,6.9,2.74c1.6-0.21,2.4-0.7,2.4-1.46c0.07-1.01-1.66-2.17-5.16-3.47s-5.5-3.64-5.97-7.02
		c0.33-6.31,3.73-9.49,10.21-9.56C13.51,70.25,16.81,71.37,20.22,73.59z"/>
	<path class="st0" d="M43.42,90.07c-1.35,5.6-4.95,8.37-10.78,8.32c-7.86,0.2-11.99-4.38-12.4-13.72
		c-0.13-9.62,4.03-14.46,12.5-14.53c5.55,0,9.06,2.93,10.54,8.79l-8.08,2.35c-0.5-1.75-1.45-2.62-2.84-2.62
		c-2.43,0.03-3.63,1.91-3.59,5.64c0.12,3.64,1.3,5.42,3.55,5.34c1.73,0.03,2.78-1.13,3.13-3.47L43.42,90.07z"/>
	<path class="st0" d="M52.8,70.1L53,99.11l-8.48-0.67l-0.32-27.93L52.8,70.1z"/>
	<path class="st0" d="M74.19,73.59l-4.02,7.25c-2.39-2-4.42-2.93-6.07-2.8c-1.05,0.41-1.41,1.08-1.06,2.03
		c0.54,0.62,2.44,1.52,5.71,2.71c3.26,1.19,4.94,3.75,5.02,7.68c-0.09,6.31-3.71,9.49-10.84,9.54c-2.34-0.07-5.32-1.31-8.95-3.75
		L55.92,89c3.02,1.81,5.32,2.73,6.9,2.74c1.6-0.21,2.4-0.7,2.4-1.46c0.07-1.01-1.66-2.17-5.16-3.47c-3.51-1.3-5.5-3.64-5.97-7.02
		c0.33-6.31,3.73-9.49,10.21-9.56C67.48,70.25,70.77,71.37,74.19,73.59z"/>
	<path class="st0" d="M94.41,73.59l-4.02,7.25c-2.39-2-4.42-2.93-6.07-2.8c-1.05,0.41-1.41,1.08-1.06,2.03
		c0.54,0.62,2.44,1.52,5.71,2.71c3.26,1.19,4.94,3.75,5.02,7.68c-0.09,6.31-3.71,9.49-10.84,9.54c-2.34-0.07-5.32-1.31-8.95-3.75
		L76.14,89c3.02,1.81,5.32,2.73,6.9,2.74c1.6-0.21,2.4-0.7,2.4-1.46c0.07-1.01-1.66-2.17-5.16-3.47c-3.51-1.3-5.5-3.64-5.97-7.02
		c0.33-6.31,3.73-9.49,10.21-9.56C87.7,70.25,91,71.37,94.41,73.59z"/>
	<path class="st0" d="M94.83,84.67c-0.13-9.62,4.03-14.46,12.5-14.53c6.91,0,10.67,4.54,11.27,13.62
		c0.14,9.82-3.65,14.69-11.37,14.63C99.37,98.58,95.23,94.01,94.83,84.67z M103.36,84.29c0.12,3.64,1.3,5.42,3.55,5.34
		c2.22,0.03,3.31-1.87,3.27-5.68c-0.17-3.53-1.25-5.3-3.23-5.3C104.52,78.68,103.32,80.56,103.36,84.29z"/>
	<path class="st0" d="M128.47,90.6l-0.08,7.84l-8.48,0.67l0.2-29.01l11.31,0.04c6.91,0,10.67,3.23,11.27,9.68
		c0.09,4.64-1.45,7.77-4.63,9.4l4.93,9.36l-9.82-0.1l-3.43-7.9L128.47,90.6z M128.57,81.98l2.44-0.04c2.22-0.11,3.31-0.75,3.27-1.93
		c-0.16-0.74-1.14-1.17-2.96-1.3l-2.72,0.08L128.57,81.98z"/>
	<path class="st0" d="M163.42,73.59l-4.02,7.25c-2.39-2-4.42-2.93-6.07-2.8c-1.05,0.41-1.41,1.08-1.06,2.03
		c0.54,0.62,2.44,1.52,5.71,2.71c3.26,1.19,4.94,3.75,5.02,7.68c-0.09,6.31-3.71,9.49-10.84,9.54c-2.34-0.07-5.32-1.31-8.95-3.75
		l1.95-7.25c3.02,1.81,5.32,2.73,6.9,2.74c1.6-0.21,2.4-0.7,2.4-1.46c0.07-1.01-1.66-2.17-5.16-3.47c-3.51-1.3-5.5-3.64-5.97-7.02
		c0.33-6.31,3.73-9.49,10.21-9.56C156.7,70.25,160,71.37,163.42,73.59z"/>
	<rect x="71.35" y="58.28" class="st1" width="86.8" height="18.65"/>
	<rect x="151.67" y="60.88" class="st2" width="5.14" height="13.87"/>
	<g>
		<g>
			<path class="st2" d="M73.22,74.77l0.1-14.16l5.52,0.02c3.37,0,5.21,1.51,5.5,4.53c0.03,0.89-0.22,1.74-0.75,2.57
				c0.4,0.68,0.65,1.46,0.75,2.34c0.07,3.12-1.78,4.68-5.55,4.67L73.22,74.77z M77.41,69.77v0.78l1.23-0.02
				c1.08-0.05,1.62-0.17,1.6-0.37c-0.07-0.28-0.6-0.42-1.59-0.42L77.41,69.77z M77.46,64.85l-0.01,0.71l1.18-0.04
				c1.08-0.05,1.62-0.17,1.6-0.37c-0.08-0.23-0.56-0.35-1.44-0.35L77.46,64.85z"/>
			<path class="st2" d="M89.08,60.61l0.1,14.16l-4.14-0.33l-0.15-13.63L89.08,60.61z"/>
			<path class="st2" d="M101.05,74.6l-5.51,0.14c-3.37,0-5.21-2.22-5.5-6.65c-0.07-4.79,1.78-7.18,5.55-7.17l5.21-0.06l-0.76,4.19
				l-4.3,0.07c-1.08,0.05-1.62,1.01-1.6,2.87c0.08,1.64,0.56,2.5,1.44,2.56l1.44-0.04l0.03-1.52h-1.7v-2.63l5.9-0.27L101.05,74.6z"
				/>
			<path class="st2" d="M102.14,74.77l0.1-14.16l5.52,0.02c3.37,0,5.21,1.51,5.5,4.53c0.03,0.89-0.22,1.74-0.75,2.57
				c0.4,0.68,0.65,1.46,0.75,2.34c0.07,3.12-1.78,4.68-5.55,4.67L102.14,74.77z M106.33,69.77v0.78l1.23-0.02
				c1.08-0.05,1.62-0.17,1.6-0.37c-0.07-0.28-0.6-0.42-1.59-0.42L106.33,69.77z M106.38,64.85l-0.01,0.71l1.18-0.04
				c1.08-0.05,1.62-0.17,1.6-0.37c-0.08-0.23-0.56-0.35-1.44-0.35L106.38,64.85z"/>
			<path class="st2" d="M118.08,73.39l-0.25,1.16l-4.67-0.29l3.82-13.74h5.39l3.37,13.63l-4.36,0.39l-0.33-1.45L118.08,73.39z
				 M120.26,69.5l-0.68-3.07l-0.68,3.19L120.26,69.5z"/>
			<path class="st2" d="M130.5,68.22l0.1,6.53l-4.36-0.39l0.19-13.83l3.72,0.05l3.91,6.39l-0.1-6.53l4.36,0.39l-0.19,13.82
				l-3.72-0.05L130.5,68.22z"/>
			<path class="st2" d="M150.19,74.6l-5.51,0.14c-3.37,0-5.21-2.22-5.5-6.65c-0.07-4.79,1.78-7.18,5.55-7.17l5.21-0.06l-0.76,4.19
				l-4.3,0.07c-1.08,0.05-1.62,1.01-1.6,2.87c0.08,1.64,0.56,2.5,1.44,2.56l1.44-0.04l0.03-1.52h-1.7v-2.63l5.9-0.27L150.19,74.6z"
				/>
		</g>
		<g>
			<g>
				<path class="st0" d="M155.91,61.56v1.45h-0.67v-0.58h-0.63v0.54h-0.63v-0.54h-0.73v0.64h-0.67v-1.5H155.91z"/>
				<path class="st0" d="M155.91,63.31v0.65c0,0.42-0.02,0.7-0.06,0.85c-0.04,0.15-0.1,0.26-0.19,0.34
					c-0.09,0.08-0.19,0.12-0.29,0.14c-0.11,0.02-0.32,0.03-0.64,0.03h-1.17c-0.3,0-0.5-0.01-0.6-0.04c-0.1-0.03-0.18-0.08-0.24-0.15
					c-0.06-0.07-0.1-0.16-0.12-0.26c-0.02-0.1-0.03-0.26-0.03-0.47v-1.09H155.91z M155.33,64.18h-2.19c0,0.12,0.03,0.2,0.07,0.23
					c0.05,0.03,0.19,0.04,0.41,0.04h1.3c0.15,0,0.25,0,0.29-0.01c0.04-0.01,0.07-0.03,0.09-0.07
					C155.32,64.34,155.33,64.28,155.33,64.18z"/>
				<path class="st0" d="M155.91,66.51h-3.33v-0.87h3.33V66.51z"/>
				<path class="st0" d="M155.91,68.61h-0.67v-0.51h-2.67v-0.87h2.67v-0.51h0.67V68.61z"/>
				<path class="st0" d="M155.91,69.67h-3.33V68.8h3.33V69.67z"/>
				<path class="st0" d="M153.95,72c-0.33,0-0.57-0.01-0.71-0.02c-0.14-0.02-0.27-0.07-0.38-0.15c-0.12-0.08-0.2-0.2-0.27-0.34
					c-0.06-0.14-0.09-0.31-0.09-0.49c0-0.18,0.03-0.34,0.09-0.48c0.06-0.14,0.15-0.26,0.26-0.34c0.12-0.09,0.24-0.14,0.38-0.15
					c0.14-0.02,0.38-0.02,0.72-0.02h0.57c0.34,0,0.57,0.01,0.71,0.02c0.14,0.02,0.27,0.07,0.38,0.15c0.12,0.08,0.2,0.2,0.27,0.34
					c0.06,0.14,0.09,0.31,0.09,0.49c0,0.18-0.03,0.34-0.09,0.48c-0.06,0.14-0.15,0.26-0.26,0.34c-0.12,0.09-0.24,0.14-0.38,0.15
					c-0.14,0.02-0.38,0.02-0.72,0.02H153.95z M155.05,71.13c0.16,0,0.25-0.01,0.3-0.03c0.04-0.02,0.06-0.05,0.06-0.11
					c0-0.05-0.02-0.08-0.05-0.1c-0.04-0.02-0.14-0.04-0.31-0.04h-1.56c-0.19,0-0.31,0.01-0.36,0.02c-0.05,0.02-0.07,0.05-0.07,0.11
					c0,0.06,0.03,0.1,0.08,0.11c0.05,0.02,0.18,0.02,0.37,0.02H155.05z"/>
				<path class="st0" d="M155.91,74.26h-3.33V73.5l1.52-0.45h-1.52v-0.72h3.33v0.72l-1.5,0.49h1.5V74.26z"/>
			</g>
		</g>
	</g>
</g>
</svg>
