<!-- Generator: Adobe Illustrator 24.0.0, SVG Export Plug-In  -->
<svg version="1.1" xmlns="http://www.w3.org/2000/svg" xmlns:xlink="http://www.w3.org/1999/xlink" x="0px" y="0px"
	 width="665.09px" height="81.24px" viewBox="0 0 665.09 81.24" style="enable-background:new 0 0 665.09 81.24;"
	 xml:space="preserve">
<style type="text/css">
	.st0{fill:#EF5241;}
	.st1{fill:#FFFFFF;}
	.st2{fill:#0A1C21;}
</style>
<defs>
</defs>
<g>
	<rect x="519.62" y="49.99" class="st0" width="145.47" height="31.25"/>
	<rect x="654.22" y="54.35" class="st1" width="8.62" height="23.25"/>
	<g>
		<path class="st2" d="M14.34,34.62L14.2,47.77L0,48.89L0.33,0.26l18.96,0.07c11.58,0,17.88,5.41,18.89,16.22
			c0.15,7.77-2.43,13.03-7.76,15.76L38.68,48l-16.45-0.17l-5.75-13.25L14.34,34.62z M14.5,20.18l4.1-0.07
			c3.72-0.18,5.55-1.26,5.48-3.24c-0.26-1.23-1.92-1.96-4.96-2.18l-4.56,0.13L14.5,20.18z"/>
		<path class="st2" d="M39.71,24.68C39.49,8.56,46.47,0.44,60.65,0.33c11.58,0,17.88,7.61,18.9,22.83
			c0.24,16.45-6.11,24.62-19.06,24.51C47.31,48,40.39,40.33,39.71,24.68z M54.01,24.05c0.2,6.1,2.18,9.08,5.95,8.95
			c3.72,0.04,5.55-3.13,5.48-9.51c-0.29-5.92-2.09-8.89-5.42-8.89C55.95,14.65,53.94,17.79,54.01,24.05z"/>
		<path class="st2" d="M119.28,33.73c-2.27,9.38-8.29,14.03-18.07,13.94C88.04,48,81.12,40.33,80.44,24.68
			C80.22,8.56,87.2,0.44,101.38,0.33c9.29,0,15.18,4.91,17.67,14.73l-13.54,3.93c-0.84-2.93-2.42-4.39-4.76-4.39
			c-4.07,0.04-6.08,3.19-6.01,9.45c0.2,6.1,2.18,9.08,5.95,8.95c2.91,0.04,4.66-1.89,5.25-5.81L119.28,33.73z"/>
		<path class="st2" d="M135.07,11.1l7.17-10.27l17.38-0.33l-16.05,22.89l15.96,24.81l-17.38-0.33l-6.9-12.32l0.1,13.35l-14.2-1.12
			L120.6,0.96l14.4-0.69L135.07,11.1z"/>
		<path class="st2" d="M192.22,34.62l-0.13,13.15l-14.2,1.12l0.33-48.62l18.96,0.07c11.58,0,17.88,5.41,18.89,16.22
			c0.24,12.05-6.11,18.05-19.06,18L192.22,34.62z M192.45,14.83l-0.07,5.35l4.1-0.07c3.72-0.18,5.55-1.26,5.48-3.24
			c-0.26-1.23-1.92-1.96-4.96-2.18L192.45,14.83z"/>
		<path class="st2" d="M228.22,44.17l-0.86,4l-16.02-0.99L224.46,0h18.5l11.56,46.81l-14.96,1.35l-1.12-4.99L228.22,44.17z
			 M235.69,30.79l-2.35-10.54L231,31.22L235.69,30.79z"/>
		<path class="st2" d="M270.18,34.62l-0.13,13.15l-14.2,1.12l0.33-48.62l18.96,0.07c11.58,0,17.88,5.41,18.89,16.22
			c0.24,12.05-6.11,18.05-19.06,18L270.18,34.62z M270.41,14.83l-0.07,5.35l4.1-0.07c3.72-0.18,5.55-1.26,5.48-3.24
			c-0.26-1.23-1.92-1.96-4.96-2.18L270.41,14.83z"/>
		<path class="st2" d="M310.58,34.06l21.44-0.2l-0.79,14.2l-35.02,0.83l0.33-48.62l35.11,0.23l-0.46,14.2l-20.41,0.33l-0.03,2.54
			l15.99-0.2l-1.12,14.2l-15.03,0.3V34.06z"/>
		<path class="st2" d="M349.19,34.62l-0.13,13.15l-14.2,1.12l0.33-48.62l18.96,0.07c11.58,0,17.88,5.41,18.9,16.22
			c0.15,7.77-2.43,13.03-7.76,15.76L373.54,48l-16.45-0.17l-5.75-13.25L349.19,34.62z M349.36,20.18l4.1-0.07
			c3.72-0.18,5.55-1.26,5.48-3.24c-0.26-1.23-1.92-1.96-4.96-2.18l-4.56,0.13L349.36,20.18z"/>
		<path class="st2" d="M424.54,6.11l-6.74,12.16c-4.01-3.35-7.4-4.91-10.17-4.69c-1.76,0.68-2.36,1.82-1.78,3.4
			c0.9,1.04,4.09,2.55,9.56,4.54c5.47,1.99,8.27,6.28,8.41,12.87c-0.15,10.57-6.21,15.9-18.17,15.99c-3.92-0.11-8.92-2.2-15-6.28
			l3.27-12.16c5.06,3.04,8.92,4.57,11.56,4.59c2.69-0.35,4.03-1.17,4.03-2.44c0.11-1.7-2.78-3.63-8.66-5.81s-9.22-6.1-10.01-11.76
			C391.4,5.95,397.1,0.61,407.96,0.5C413.29,0.52,418.81,2.39,424.54,6.11z"/>
		<path class="st2" d="M463.42,33.73c-2.27,9.38-8.29,14.03-18.07,13.94c-13.17,0.33-20.09-7.33-20.78-22.99
			c-0.22-16.12,6.76-24.23,20.94-24.35c9.29,0,15.18,4.91,17.67,14.73l-13.54,3.93c-0.84-2.93-2.42-4.39-4.76-4.39
			c-4.07,0.04-6.08,3.19-6.01,9.45c0.2,6.1,2.18,9.08,5.95,8.95c2.91,0.04,4.66-1.89,5.25-5.81L463.42,33.73z"/>
		<path class="st2" d="M479.14,0.26l0.33,48.62l-14.2-1.12l-0.53-46.81L479.14,0.26z"/>
		<path class="st2" d="M514.98,6.11l-6.74,12.16c-4.01-3.35-7.4-4.91-10.17-4.69c-1.76,0.68-2.36,1.82-1.78,3.4
			c0.9,1.04,4.09,2.55,9.56,4.54c5.47,1.99,8.27,6.28,8.41,12.87c-0.15,10.57-6.21,15.9-18.17,15.99c-3.92-0.11-8.92-2.2-15-6.28
			l3.27-12.16c5.06,3.04,8.92,4.57,11.56,4.59c2.69-0.35,4.03-1.17,4.03-2.44c0.11-1.7-2.78-3.63-8.66-5.81s-9.22-6.1-10.01-11.76
			c0.55-10.57,6.25-15.91,17.11-16.02C503.73,0.52,509.26,2.39,514.98,6.11z"/>
		<path class="st2" d="M548.87,6.11l-6.74,12.16c-4.01-3.35-7.4-4.91-10.17-4.69c-1.76,0.68-2.36,1.82-1.78,3.4
			c0.9,1.04,4.09,2.55,9.56,4.54c5.47,1.99,8.27,6.28,8.41,12.87c-0.15,10.57-6.21,15.9-18.17,15.99c-3.92-0.11-8.92-2.2-15-6.28
			l3.27-12.16c5.06,3.04,8.92,4.57,11.56,4.59c2.69-0.35,4.03-1.17,4.03-2.44c0.11-1.7-2.78-3.63-8.66-5.81s-9.22-6.1-10.01-11.76
			c0.55-10.57,6.25-15.91,17.11-16.02C537.62,0.52,543.15,2.39,548.87,6.11z"/>
		<path class="st2" d="M549.57,24.68c-0.22-16.12,6.76-24.23,20.94-24.35c11.58,0,17.88,7.61,18.89,22.83
			c0.24,16.45-6.11,24.62-19.06,24.51C557.18,48,550.25,40.33,549.57,24.68z M563.87,24.05c0.2,6.1,2.18,9.08,5.95,8.95
			c3.72,0.04,5.55-3.13,5.48-9.51c-0.29-5.92-2.09-8.89-5.42-8.89C565.81,14.65,563.81,17.79,563.87,24.05z"/>
		<path class="st2" d="M605.96,34.62l-0.13,13.15l-14.2,1.12l0.33-48.62l18.96,0.07c11.58,0,17.88,5.41,18.9,16.22
			c0.15,7.77-2.43,13.03-7.76,15.76L630.3,48l-16.45-0.17l-5.75-13.25L605.96,34.62z M606.12,20.18l4.1-0.07
			c3.72-0.18,5.55-1.26,5.48-3.24c-0.26-1.23-1.92-1.96-4.96-2.18l-4.56,0.13L606.12,20.18z"/>
		<path class="st2" d="M664.52,6.11l-6.74,12.16c-4.01-3.35-7.4-4.91-10.17-4.69c-1.76,0.68-2.36,1.82-1.78,3.4
			c0.9,1.04,4.09,2.55,9.56,4.54c5.47,1.99,8.27,6.28,8.41,12.87c-0.15,10.57-6.21,15.9-18.17,15.99c-3.92-0.11-8.92-2.2-15-6.28
			l3.27-12.16c5.06,3.04,8.92,4.57,11.56,4.59c2.69-0.35,4.03-1.17,4.03-2.44c0.11-1.7-2.78-3.63-8.66-5.81s-9.22-6.1-10.01-11.76
			c0.55-10.57,6.25-15.91,17.11-16.02C653.27,0.52,658.8,2.39,664.52,6.11z"/>
	</g>
	<g>
		<g>
			<path class="st1" d="M522.75,77.63l0.16-23.73l9.25,0.03c5.65,0,8.73,2.53,9.22,7.59c0.04,1.48-0.38,2.92-1.26,4.3
				c0.68,1.14,1.1,2.45,1.26,3.92c0.12,5.23-2.98,7.84-9.3,7.82L522.75,77.63z M529.76,69.25v1.31l2.06-0.03
				c1.82-0.09,2.71-0.29,2.68-0.61c-0.12-0.47-1-0.71-2.66-0.71L529.76,69.25z M529.86,61.01l-0.02,1.19l1.98-0.06
				c1.82-0.09,2.71-0.29,2.68-0.61c-0.13-0.39-0.94-0.58-2.42-0.58L529.86,61.01z"/>
			<path class="st1" d="M549.32,53.9l0.16,23.73l-6.93-0.55l-0.26-22.85L549.32,53.9z"/>
			<path class="st1" d="M569.39,77.35l-9.24,0.24c-5.65,0-8.73-3.71-9.22-11.14c-0.12-8.03,2.98-12.03,9.3-12.01l8.74-0.1
				l-1.27,7.03l-7.21,0.11c-1.82,0.09-2.71,1.69-2.68,4.8c0.14,2.75,0.95,4.18,2.42,4.29l2.42-0.06l0.05-2.55h-2.85v-4.4l9.88-0.45
				L569.39,77.35z"/>
			<path class="st1" d="M571.21,77.63l0.16-23.73l9.25,0.03c5.65,0,8.73,2.53,9.22,7.59c0.04,1.48-0.38,2.92-1.26,4.3
				c0.68,1.14,1.1,2.45,1.26,3.92c0.12,5.23-2.98,7.84-9.3,7.82L571.21,77.63z M578.23,69.25v1.31l2.06-0.03
				c1.82-0.09,2.71-0.29,2.68-0.61c-0.12-0.47-1-0.71-2.66-0.71L578.23,69.25z M578.32,61.01l-0.02,1.19l1.98-0.06
				c1.82-0.09,2.71-0.29,2.68-0.61c-0.13-0.39-0.94-0.58-2.42-0.58L578.32,61.01z"/>
			<path class="st1" d="M597.93,75.32l-0.42,1.95l-7.82-0.48l6.4-23.02h9.03l5.64,22.85l-7.3,0.66l-0.55-2.43L597.93,75.32z
				 M601.57,68.79l-1.14-5.14L599.28,69L601.57,68.79z"/>
			<path class="st1" d="M618.74,66.65l0.16,10.95l-7.3-0.66l0.32-23.17l6.24,0.08l6.55,10.71l-0.16-10.95l7.3,0.66l-0.32,23.17
				l-6.24-0.08L618.74,66.65z"/>
			<path class="st1" d="M651.73,77.35l-9.24,0.24c-5.65,0-8.73-3.71-9.22-11.14c-0.12-8.03,2.98-12.03,9.3-12.01l8.74-0.1
				l-1.27,7.03l-7.21,0.11c-1.82,0.09-2.71,1.69-2.68,4.8c0.14,2.75,0.95,4.18,2.42,4.29l2.42-0.06l0.05-2.55h-2.85v-4.4l9.88-0.45
				L651.73,77.35z"/>
		</g>
		<g>
			<g>
				<path class="st2" d="M661.32,55.5v2.42h-1.12v-0.97h-1.06v0.91h-1.06v-0.91h-1.23v1.07h-1.12V55.5H661.32z"/>
				<path class="st2" d="M661.32,58.43v1.09c0,0.7-0.03,1.18-0.1,1.42c-0.06,0.25-0.17,0.44-0.32,0.56
					c-0.15,0.13-0.31,0.21-0.49,0.24c-0.18,0.03-0.54,0.05-1.06,0.05h-1.96c-0.5,0-0.84-0.02-1.01-0.07
					c-0.17-0.05-0.3-0.13-0.4-0.25c-0.1-0.12-0.16-0.26-0.2-0.43c-0.04-0.17-0.06-0.43-0.06-0.78v-1.83H661.32z M660.36,59.89h-3.67
					c0,0.21,0.04,0.34,0.13,0.39c0.08,0.05,0.31,0.07,0.69,0.07h2.17c0.25,0,0.41-0.01,0.49-0.02c0.07-0.02,0.12-0.05,0.16-0.11
					C660.35,60.15,660.36,60.05,660.36,59.89z"/>
				<path class="st2" d="M661.32,63.79h-5.59v-1.45h5.59V63.79z"/>
				<path class="st2" d="M661.32,67.3h-1.12v-0.86h-4.47v-1.45h4.47v-0.86h1.12V67.3z"/>
				<path class="st2" d="M661.32,69.09h-5.59v-1.45h5.59V69.09z"/>
				<path class="st2" d="M658.05,72.99c-0.56,0-0.96-0.01-1.19-0.04c-0.23-0.03-0.45-0.11-0.64-0.25c-0.19-0.14-0.34-0.33-0.45-0.56
					c-0.1-0.24-0.16-0.51-0.16-0.83c0-0.3,0.05-0.57,0.15-0.81c0.1-0.24,0.24-0.43,0.44-0.57c0.2-0.14,0.41-0.23,0.64-0.26
					c0.23-0.03,0.63-0.04,1.21-0.04H659c0.56,0,0.96,0.01,1.19,0.04c0.23,0.03,0.45,0.11,0.64,0.25c0.19,0.14,0.34,0.33,0.44,0.56
					c0.1,0.24,0.16,0.51,0.16,0.83c0,0.3-0.05,0.57-0.15,0.81c-0.1,0.24-0.24,0.43-0.44,0.57s-0.41,0.23-0.64,0.26
					c-0.23,0.03-0.63,0.04-1.21,0.04H658.05z M659.88,71.54c0.26,0,0.43-0.01,0.5-0.04c0.07-0.03,0.11-0.09,0.11-0.18
					c0-0.08-0.03-0.13-0.09-0.17c-0.06-0.04-0.23-0.06-0.52-0.06h-2.61c-0.32,0-0.53,0.01-0.6,0.04c-0.08,0.03-0.11,0.09-0.11,0.18
					c0,0.1,0.04,0.16,0.13,0.19c0.09,0.03,0.3,0.04,0.62,0.04H659.88z"/>
				<path class="st2" d="M661.32,76.78h-5.59V75.5l2.54-0.76h-2.54v-1.21h5.59v1.21l-2.52,0.81h2.52V76.78z"/>
			</g>
		</g>
	</g>
</g>
</svg>
